<svg version="1.0" xmlns="http://www.w3.org/2000/svg"
     width="87.000000pt" height="192.000000pt" viewBox="0 0 192.000000 192.000000"
     preserveAspectRatio="xMidYMid meet">

    <g transform="translate(0.000000,192.000000) scale(0.100000,-0.100000)"
       fill="#000000" stroke="none">
        <path d="M725 1896 c-88 -18 -175 -48 -234 -83 -272 -158 -418 -455 -398 -811
11 -190 62 -323 168 -436 78 -84 148 -132 287 -198 273 -128 272 -128 298
-167 13 -21 30 -67 36 -102 6 -35 13 -66 14 -67 5 -8 101 71 172 141 72 70
151 177 171 230 6 15 14 27 19 27 17 0 191 -40 218 -51 16 -6 37 -18 47 -27
16 -14 22 -13 74 25 94 66 111 105 90 205 -7 35 -6 38 25 53 70 33 85 55 127
180 35 102 38 133 15 178 -22 43 -114 157 -192 238 l-63 67 11 43 c23 85 -10
143 -118 210 -56 34 -74 52 -96 96 -57 108 -180 202 -311 238 -84 22 -272 28
-360 11z m299 -61 c147 -28 275 -119 328 -235 17 -38 34 -54 86 -86 69 -42
122 -95 122 -121 0 -9 -10 -37 -21 -61 l-22 -44 80 -81 c95 -97 186 -205 206
-244 14 -25 13 -34 -8 -88 -12 -33 -30 -81 -40 -108 -13 -37 -26 -53 -58 -71
-23 -14 -55 -28 -70 -32 -21 -5 -27 -11 -22 -23 4 -9 13 -42 21 -73 17 -65 12
-81 -38 -123 -33 -28 -38 -28 -118 -1 -25 8 -79 22 -121 31 l-77 16 5 62 c9
104 -25 184 -62 146 -10 -11 -11 -25 -2 -67 22 -104 -26 -232 -133 -360 -34
-40 -64 -71 -67 -68 -3 3 3 26 13 53 14 34 19 74 19 138 0 115 -16 147 -139
275 -179 187 -215 340 -125 530 39 83 158 203 254 255 39 21 72 40 74 41 2 2
-7 22 -20 45 -33 60 -92 99 -160 105 -46 5 -62 2 -109 -23 -44 -23 -59 -39
-83 -83 -32 -63 -35 -135 -5 -154 26 -16 39 3 42 61 2 59 31 103 80 127 54 26
108 17 153 -26 l22 -21 -73 -48 c-142 -94 -252 -245 -277 -384 -29 -159 35
-318 192 -478 96 -97 124 -156 116 -246 -3 -41 -16 -91 -32 -127 -24 -53 -28
-57 -38 -40 -29 46 -75 90 -126 119 -115 64 -252 232 -309 377 -39 102 -46
143 -46 285 -1 148 12 217 55 309 24 53 20 79 -13 74 -27 -4 -57 -62 -84 -163
-26 -102 -24 -311 5 -420 25 -97 97 -245 151 -314 22 -28 36 -51 31 -51 -5 0
-42 19 -83 41 -212 119 -310 257 -339 475 -30 225 24 459 145 628 156 219 439
325 720 271z"/>
        <path d="M1292 1251 c-98 -46 -101 -49 -71 -55 17 -3 46 -6 65 -6 70 0 81 -11
89 -92 4 -40 10 -77 13 -82 6 -11 51 147 52 183 0 36 -22 101 -34 100 -6 0
-57 -22 -114 -48z"/>
    </g>
</svg>